# xmcd
#
# Track frame offsets:
#	150
#	4628
#	8461
#	11953
#	15388
#	18968
#	23025
#	29841
#	34467
#	38594
#	42340
#	45895
#	48854
#	52290
#	62198
#	67362
#	71399
#	76474
#	80079
#	83527
#	87663
#	97090
#	102251
#	105377
#	110100
#	114141
#	118458
#	123169
#	135093
#	139772
#	146014
#	150526
#	156112
#	160759
#	165244
#	173142
#	177613
#	182514
#	188195
#	193304
#	197407
#	200984
#	212374
#	217689
#	223285
#	227343
#	231728
#	238220
#	242856
#	247958
#
# Disc length: 3339 seconds
#
# Revision: 0
# Processed by: cddbd v1.5.2PL0 Copyright (c) Steve Scherf et al.
# Submitted via: dBpowerAMP V4.0
#
DISCID=b70d0932
DTITLE=Various Artist - 스페인어
DYEAR=2007
DGENRE=Acapella
TTITLE0=Track01 - 스페인어
TTITLE1=Track02 - 스페인어
TTITLE2=Track03 - 스페인어
TTITLE3=Track04 - 스페인어
TTITLE4=Track05 - 스페인어
TTITLE5=Track06 - 스페인어
TTITLE6=Track07 - 스페인어
TTITLE7=Track08 - 스페인어
TTITLE8=Track09 - 스페인어
TTITLE9=Track10 - 스페인어
TTITLE10=Track11 - 스페인어
TTITLE11=Track12 - 스페인어
TTITLE12=Track13 - 스페인어
TTITLE13=Track14 - 스페인어
TTITLE14=Track15 - 스페인어
TTITLE15=Track16 - 스페인어
TTITLE16=Track17 - 스페인어
TTITLE17=Track18 - 스페인어
TTITLE18=Track19 - 스페인어
TTITLE19=Track20 - 스페인어
TTITLE20=Track21 - 스페인어
TTITLE21=Track22 - 스페인어
TTITLE22=Track23 - 스페인어
TTITLE23=Track24 - 스페인어
TTITLE24=Track25 - 스페인어
TTITLE25=Track26 - 스페인어
TTITLE26=Track27 - 스페인어
TTITLE27=Track28 - 스페인어
TTITLE28=Track29 - 스페인어
TTITLE29=Track30 - 스페인어
TTITLE30=Track31 - 스페인어
TTITLE31=Track32 - 스페인어
TTITLE32=Track33 - 스페인어
TTITLE33=Track34 - 스페인어
TTITLE34=Track35 - 스페인어
TTITLE35=Track36 - 스페인어
TTITLE36=Track37 - 스페인어
TTITLE37=Track38 - 스페인어
TTITLE38=Track39 - 스페인어
TTITLE39=Track40 - 스페인어
TTITLE40=Track41 - 스페인어
TTITLE41=Track42 - 스페인어
TTITLE42=Track43 - 스페인어
TTITLE43=Track44 - 스페인어
TTITLE44=Track45 - 스페인어
TTITLE45=Track46 - 스페인어
TTITLE46=Track47 - 스페인어
TTITLE47=Track48 - 스페인어
TTITLE48=Track49 - 스페인어
TTITLE49=Track50 - 스페인어
EXTD=
EXTT0=
EXTT1=
EXTT2=
EXTT3=
EXTT4=
EXTT5=
EXTT6=
EXTT7=
EXTT8=
EXTT9=
EXTT10=
EXTT11=
EXTT12=
EXTT13=
EXTT14=
EXTT15=
EXTT16=
EXTT17=
EXTT18=
EXTT19=
EXTT20=
EXTT21=
EXTT22=
EXTT23=
EXTT24=
EXTT25=
EXTT26=
EXTT27=
EXTT28=
EXTT29=
EXTT30=
EXTT31=
EXTT32=
EXTT33=
EXTT34=
EXTT35=
EXTT36=
EXTT37=
EXTT38=
EXTT39=
EXTT40=
EXTT41=
EXTT42=
EXTT43=
EXTT44=
EXTT45=
EXTT46=
EXTT47=
EXTT48=
EXTT49=
PLAYORDER=
